<?xml version="1.0" standalone="no"?><!DOCTYPE svg PUBLIC "-//W3C//DTD SVG 1.1//EN" "http://www.w3.org/Graphics/SVG/1.1/DTD/svg11.dtd"><svg t="1756729251040" class="icon" viewBox="0 0 1024 1024" version="1.1" xmlns="http://www.w3.org/2000/svg" p-id="12777" data-darkreader-inline-fill="" xmlns:xlink="http://www.w3.org/1999/xlink" width="200" height="200"><path d="M844.8 179.2a51.2 51.2 0 0 1 51.2 51.2v435.2a51.2 51.2 0 0 1-51.2 51.2H339.712L171.776 885.6064A25.6 25.6 0 0 1 128 867.584V230.4a51.2 51.2 0 0 1 51.2-51.2h665.6z m0 51.2H179.2v575.104L318.4384 665.6H844.8V230.4z" fill="#1afa29" p-id="12778" data-darkreader-inline-fill="" style="--darkreader-inline-fill: var(--darkreader-background-1afa29, #04bb3b);"></path><path d="M537.6 281.6l165.888 307.2h-59.136l-53.632-102.4h-150.6048l-53.6832 102.4h-59.1104l165.9392-307.2H537.6z m-22.1696 67.4304L468.1984 435.2h94.4384l-47.2064-86.1696z" fill="#1afa29" p-id="12779" data-darkreader-inline-fill="" style="--darkreader-inline-fill: var(--darkreader-background-1afa29, #04bb3b);"></path></svg>